<?xml version="1.0" encoding="UTF-8" standalone="no"?>
<!-- Created with Inkscape (http://www.inkscape.org/) -->

<svg
   width="1024"
   height="1024"
   viewBox="0 0 270.93332 270.93334"
   version="1.1"
   id="svg1"
   inkscape:version="1.4 (e7c3feb100, 2024-10-09)"
   sodipodi:docname="icon.svg"
   inkscape:export-filename="icon.png"
   inkscape:export-xdpi="96"
   inkscape:export-ydpi="96"
   xmlns:inkscape="http://www.inkscape.org/namespaces/inkscape"
   xmlns:sodipodi="http://sodipodi.sourceforge.net/DTD/sodipodi-0.dtd"
   xmlns="http://www.w3.org/2000/svg"
   xmlns:svg="http://www.w3.org/2000/svg">
  <sodipodi:namedview
     id="namedview1"
     pagecolor="#505050"
     bordercolor="#ffffff"
     borderopacity="1"
     inkscape:showpageshadow="0"
     inkscape:pageopacity="0"
     inkscape:pagecheckerboard="1"
     inkscape:deskcolor="#505050"
     inkscape:document-units="mm"
     inkscape:zoom="0.35355339"
     inkscape:cx="974.39315"
     inkscape:cy="240.41631"
     inkscape:window-width="1920"
     inkscape:window-height="987"
     inkscape:window-x="0"
     inkscape:window-y="0"
     inkscape:window-maximized="1"
     inkscape:current-layer="layer1"
     showgrid="false" />
  <defs
     id="defs1" />
  <g
     inkscape:label="Layer 1"
     inkscape:groupmode="layer"
     id="layer1">
    <g
       id="g1">
      <path
         style="fill:#ffffff;stroke:#ffe680;stroke-width:23.8526;stroke-linecap:round;stroke-dasharray:none"
         d="m 135.46666,202.06498 v 33.29134"
         id="path26"
         sodipodi:nodetypes="cc" />
      <path
         style="fill:#ffffff;stroke:#ffe680;stroke-width:23.8526;stroke-linecap:round;stroke-dasharray:none"
         d="M 88.374537,182.5588 64.834005,206.09929"
         id="path25"
         sodipodi:nodetypes="cc" />
      <path
         style="fill:#ffffff;stroke:#ffe680;stroke-width:23.8526;stroke-linecap:round;stroke-dasharray:none"
         d="M 68.868337,135.46667 H 35.577018"
         id="path24"
         sodipodi:nodetypes="cc" />
      <path
         style="fill:#ffffff;stroke:#ffe680;stroke-width:23.8526;stroke-linecap:round;stroke-dasharray:none"
         d="m 182.5588,182.5588 23.54053,23.54049"
         id="path23"
         sodipodi:nodetypes="cc" />
      <path
         style="fill:#ffffff;stroke:#ffe680;stroke-width:23.8526;stroke-linecap:round;stroke-dasharray:none"
         d="M 235.35632,135.46666 H 202.06498"
         id="path22"
         sodipodi:nodetypes="cc" />
      <path
         id="path21"
         style="fill:#ffffff;stroke:#000000;stroke-width:11.4219;stroke-dasharray:none;paint-order:stroke fill markers"
         d="m 132.68248,105.10133 a 30.347123,30.347123 0 0 0 -25.04459,29.82431 30.347123,30.347123 0 0 0 30.34712,30.34712 30.347123,30.347123 0 0 0 26.70114,-16.08543 30.347123,30.347123 0 0 1 -5.30252,0.5228 30.347123,30.347123 0 0 1 -30.34713,-30.34711 30.347123,30.347123 0 0 1 3.64598,-14.26169 z" />
      <path
         style="fill:#ffffff;stroke:#ffe680;stroke-width:23.8526;stroke-linecap:round;stroke-dasharray:none"
         d="M 88.374537,88.374535 64.834005,64.834036"
         id="path20"
         sodipodi:nodetypes="cc" />
      <path
         style="fill:#ffffff;stroke:#ffe680;stroke-width:23.8526;stroke-linecap:round;stroke-dasharray:none"
         d="M 135.46666,35.577019 V 68.86834"
         id="path19"
         sodipodi:nodetypes="cc" />
      <path
         style="fill:#ffffff;stroke:#ffe680;stroke-width:23.8526;stroke-linecap:round;stroke-dasharray:none"
         d="M 182.55879,88.374535 206.09933,64.834036"
         id="path11"
         sodipodi:nodetypes="cc" />
      <path
         id="path1"
         style="fill:none;stroke:#000080;stroke-width:5.97341;stroke-dasharray:none"
         d="m 132.68248,105.10133 a 30.347123,30.347123 0 0 0 -25.04459,29.82431 30.347123,30.347123 0 0 0 30.34712,30.34712 30.347123,30.347123 0 0 0 26.70114,-16.08543 30.347123,30.347123 0 0 1 -5.30252,0.5228 30.347123,30.347123 0 0 1 -30.34713,-30.34711 30.347123,30.347123 0 0 1 3.64598,-14.26169 z" />
    </g>
  </g>
</svg>
